<svg xmlns="http://www.w3.org/2000/svg" viewBox="-47 -6 202 202">
  <title>Grande Burrito</title>
  <rect x="-47" y="-6" width="202" height="202" rx="24" fill="#a6855f" />
  <path
    fill="#17141c"
    d="M17.82,177.5C1.19,160.88,0,137.91,0,96.08c0-3.28,0-6.45.03-9.5C.28,50.68,2.49,29.97,17.82,14.65,27.05,5.41,39.33,0,55.56,0c29.94,0,48.47,19.85,52.09,48.73.45,3.56-2.38,6.7-5.96,6.7h-25.44c-3.01,0-5.57-2.23-5.94-5.21-1.31-10.58-5.25-16.43-14.75-16.43-5.02,0-8.05,1.45-10.56,3.96-6.47,6.47-7.38,25.97-7.5,48.51-.02,3.22-.02,6.5-.02,9.82,0,26.53.13,50.94,7.52,58.33,2.51,2.51,5.54,3.96,10.56,3.96,4.09,0,7.13-1.45,9.5-3.83,4.09-4.09,5.67-9.11,5.67-20.46v-11.16c0-3.31-2.69-6-6-6h-3.57c-3.31,0-6-2.69-6-6v-18.35c0-3.31,2.69-6,6-6h41.05c3.31,0,6,2.69,6,6v41.77c0,20.06-5.54,34.18-15.31,43.95-9.11,9.11-22.04,13.86-37.35,13.86-16.23,0-28.51-5.41-37.74-14.65Z"
  />
</svg>
